<svg width="114" height="18" viewBox="0 0 114 18" fill="none" xmlns="http://www.w3.org/2000/svg">
<path d="M0.43821 0.909091V14H2.31747V4.5206H2.43892L6.29972 13.9808H7.85938L11.7202 4.52699H11.8416V14H13.7209V0.909091H11.3239L7.15625 11.0852H7.00284L2.83523 0.909091H0.43821ZM17.6472 17.6818C19.226 17.6818 20.2232 16.8572 20.7921 15.3104L24.851 4.20099L22.7864 4.18182L20.2999 11.8011H20.1976L17.7111 4.18182H15.6657L19.258 14.1278L19.0215 14.7798C18.5357 16.0838 17.8517 16.1925 16.8034 15.9048L16.3432 17.4709C16.5733 17.5732 17.0719 17.6818 17.6472 17.6818ZM31.5691 14H33.5442V9.39773H36.2289C39.2651 9.39773 40.7672 7.56321 40.7672 5.14702C40.7672 2.73722 39.2779 0.909091 36.2353 0.909091H31.5691V14ZM33.5442 7.72301V2.60298H36.0243C37.9803 2.60298 38.7793 3.66406 38.7793 5.14702C38.7793 6.62997 37.9803 7.72301 36.0499 7.72301H33.5442ZM42.9293 14H44.8406V8.00426C44.8406 6.71946 45.8313 5.79261 47.1864 5.79261C47.5827 5.79261 48.0302 5.86293 48.1836 5.90767V4.07955C47.9918 4.05398 47.6147 4.0348 47.3718 4.0348C46.2212 4.0348 45.2369 4.68679 44.8789 5.74148H44.7766V4.18182H42.9293V14ZM49.8375 14H51.7488V4.18182H49.8375V14ZM50.8027 2.6669C51.4611 2.6669 52.0108 2.15554 52.0108 1.52912C52.0108 0.902698 51.4611 0.384943 50.8027 0.384943C50.138 0.384943 49.5946 0.902698 49.5946 1.52912C49.5946 2.15554 50.138 2.6669 50.8027 2.6669ZM62.7191 4.18182H60.6673L58.1871 11.7372H58.0849L55.5984 4.18182H53.5465L57.1133 14H59.1587L62.7191 4.18182ZM64.5153 14H66.4265V4.18182H64.5153V14ZM65.4805 2.6669C66.1388 2.6669 66.6886 2.15554 66.6886 1.52912C66.6886 0.902698 66.1388 0.384943 65.4805 0.384943C64.8157 0.384943 64.2724 0.902698 64.2724 1.52912C64.2724 2.15554 64.8157 2.6669 65.4805 2.6669ZM70.9089 0.909091H68.9977V14H70.9089V0.909091ZM77.7116 14.1982C79.853 14.1982 81.3679 13.1435 81.8026 11.5455L79.9936 11.2195C79.6484 12.1463 78.8175 12.6193 77.7308 12.6193C76.0945 12.6193 74.995 11.5582 74.9439 9.66619H81.924V8.98864C81.924 5.44105 79.8018 4.05398 77.5774 4.05398C74.8416 4.05398 73.0391 6.13778 73.0391 9.15483C73.0391 12.2038 74.8161 14.1982 77.7116 14.1982ZM74.9503 8.23438C75.027 6.84091 76.0369 5.63281 77.5902 5.63281C79.0732 5.63281 80.0447 6.73224 80.0511 8.23438H74.9503ZM88.161 17.8864C90.6603 17.8864 92.5907 16.7422 92.5907 14.2173V4.18182H90.7179V5.77344H90.5772C90.2385 5.16619 89.5609 4.05398 87.7328 4.05398C85.3613 4.05398 83.6163 5.92685 83.6163 9.05256C83.6163 12.1847 85.3997 13.853 87.72 13.853C89.5226 13.853 90.2193 12.8366 90.5645 12.2102H90.6859V14.1406C90.6859 15.6811 89.6312 16.3459 88.1802 16.3459C86.5886 16.3459 85.9686 15.5469 85.6298 14.9844L83.987 15.6619C84.5048 16.8636 85.8152 17.8864 88.161 17.8864ZM88.1419 12.2678C86.4352 12.2678 85.5467 10.9574 85.5467 9.02699C85.5467 7.14134 86.416 5.67756 88.1419 5.67756C89.8102 5.67756 90.7051 7.03906 90.7051 9.02699C90.7051 11.0533 89.791 12.2678 88.1419 12.2678ZM99.3855 14.1982C101.527 14.1982 103.042 13.1435 103.476 11.5455L101.667 11.2195C101.322 12.1463 100.491 12.6193 99.4047 12.6193C97.7683 12.6193 96.6689 11.5582 96.6177 9.66619H103.598V8.98864C103.598 5.44105 101.476 4.05398 99.2512 4.05398C96.5154 4.05398 94.7129 6.13778 94.7129 9.15483C94.7129 12.2038 96.4899 14.1982 99.3855 14.1982ZM96.6241 8.23438C96.7008 6.84091 97.7108 5.63281 99.264 5.63281C100.747 5.63281 101.719 6.73224 101.725 8.23438H96.6241ZM113.076 6.57884C112.679 5.05114 111.484 4.05398 109.362 4.05398C107.144 4.05398 105.571 5.22372 105.571 6.96236C105.571 8.35582 106.415 9.28267 108.256 9.69176L109.918 10.0561C110.864 10.267 111.305 10.6889 111.305 11.3026C111.305 12.0632 110.493 12.6577 109.24 12.6577C108.096 12.6577 107.361 12.1655 107.131 11.2003L105.284 11.4815C105.603 13.2202 107.048 14.1982 109.253 14.1982C111.625 14.1982 113.267 12.9389 113.267 11.1619C113.267 9.77486 112.385 8.91832 110.583 8.50284L109.023 8.14489C107.943 7.8892 107.476 7.52486 107.483 6.86009C107.476 6.10582 108.294 5.56889 109.381 5.56889C110.57 5.56889 111.12 6.22727 111.343 6.88565L113.076 6.57884Z" fill="#B1B1B1"/>
</svg>
